# File created by Blade
# Date/Time:  Wed Jan 21 17:41:14 2015
# Frame Rate: 120.000 fps
#------------------------------------------------------
:FULLY-SPECIFIED
:DEGREES
1070
root 13.336999 25.249241 -20.800598 -209.664546 78.069365 -287.530767
Spine 38.006875 -2.602655 -12.858230
Head 2.690800 -3.588706 13.620133
LeftShoulder 20.401585 -45.773486 9.160387
LeftArm 53.891239 7.595310 -16.159934
LeftForeArm 2.487870 -0.000000 1.896664
LeftHand 6.209079 0.000000 55.968966
LeftHandThumb1 -26.253704 0.000000 33.147579
RightShoulder 5.495546 9.017761 -14.873688
RightArm 66.530338 24.261473 31.169165
RightForeArm -19.590646 -0.000000 11.763381
RightHand 0.635957 -0.000000 -71.560740
RightHandThumb1 -24.326973 -0.000000 -32.862282
LeftUpLeg -54.322834 0.473161 -14.145342
LeftLeg 54.393272 -0.000000 -0.000000
LeftFoot -43.923807 16.684983 -10.712939
LeftToeBase 12.165592 -0.000000 -0.000000
RightUpLeg -25.908078 -5.129391 3.311425
RightLeg 9.224280 -0.000000 -0.000000
RightFoot 17.202924 -35.518061 -9.558117
RightToeBase -10.548963 -0.000000 0.000000
1071
root 13.319724 25.334375 -20.752979 -209.181078 77.889124 -286.933353
Spine 38.628885 -2.584423 -12.973172
Head 2.083957 -3.594727 14.088771
LeftShoulder 20.638113 -45.892386 9.366717
LeftArm 53.780320 7.277958 -15.585462
LeftForeArm 2.080077 -0.000000 2.023172
LeftHand 6.232048 -0.000000 55.653048
LeftHandThumb1 -26.253704 0.000000 33.147579
RightShoulder 5.430332 9.254510 -14.786958
RightArm 66.576231 24.661980 31.099326
RightForeArm -19.416421 -0.000000 11.502001
RightHand 0.735269 0.000000 -71.369634
RightHandThumb1 -24.326973 -0.000000 -32.862282
LeftUpLeg -55.682431 0.102640 -14.249045
LeftLeg 56.279032 -0.000000 -0.000000
LeftFoot -44.212604 16.704440 -10.779018
LeftToeBase 12.153253 -0.000000 -0.000000
RightUpLeg -25.969130 -5.111435 3.258600
RightLeg 9.271987 -0.000000 -0.000000
RightFoot 17.641452 -35.572739 -9.703311
RightToeBase -10.551283 -0.000000 0.000000
1072
root 13.296672 25.420338 -20.703362 -208.871146 77.760010 -286.577881
Spine 39.162234 -2.609717 -13.144052
Head 1.464462 -3.566306 14.404618
LeftShoulder 20.782433 -46.096468 9.588741
LeftArm 53.608822 7.042025 -15.070115
LeftForeArm 1.646755 -0.000000 2.132847
LeftHand 6.219012 -0.000000 55.464052
LeftHandThumb1 -26.253704 0.000000 33.147579
RightShoulder 5.379426 9.684962 -14.850088
RightArm 66.808183 24.993481 31.655971
RightForeArm -19.659922 0.000000 11.189842
RightHand 0.923256 -0.000000 -71.243570
RightHandThumb1 -24.326973 -0.000000 -32.862282
LeftUpLeg -57.111884 -0.177838 -14.391169
LeftLeg 58.118434 -0.000000 -0.000000
LeftFoot -44.509245 16.986241 -10.725274
LeftToeBase 12.236283 -0.000000 -0.000000
RightUpLeg -26.083704 -4.870110 3.145846
RightLeg 9.385056 -0.000000 -0.000000
RightFoot 18.349821 -35.278861 -10.454069
RightToeBase -8.909094 -0.000000 0.000000
1073
root 13.271896 25.497060 -20.661425 -208.287464 77.594650 -285.982754
Spine 39.602991 -2.697522 -13.241170
Head 0.946132 -3.516216 14.724087
LeftShoulder 20.945378 -46.182546 9.743341
LeftArm 53.512413 6.705210 -14.639812
LeftForeArm 1.246341 -0.000000 2.168902
LeftHand 6.210967 -0.000000 55.375842
LeftHandThumb1 -26.253704 0.000000 33.147579
RightShoulder 5.378161 9.957928 -14.789746
RightArm 66.685246 25.242145 31.492949
RightForeArm -19.513500 -0.000000 11.253317
RightHand 0.754938 -0.000000 -71.054797
RightHandThumb1 -24.326973 -0.000000 -32.862282
LeftUpLeg -58.570612 -0.628440 -14.446569
LeftLeg 59.963306 -0.000000 -0.000000
LeftFoot -44.750221 17.365100 -10.806501
LeftToeBase 12.067723 -0.000000 -0.000000
RightUpLeg -26.233683 -4.924564 3.128442
RightLeg 9.423252 -0.000000 -0.000000
RightFoot 18.541538 -35.233357 -10.443788
RightToeBase -8.560498 -0.000000 0.000000
